<mxfile host="app.diagrams.net" modified="2020-08-19T11:29:52.619Z" agent="5.0 (X11)" etag="USkSf47od0sxwwJ4bTaC" version="13.6.3" type="github">
  <diagram id="1NkAsfH9KzE3saYKE_k4" name="Page-1">
    <mxGraphModel dx="2205" dy="776" grid="1" gridSize="10" guides="1" tooltips="1" connect="1" arrows="1" fold="1" page="1" pageScale="1" pageWidth="850" pageHeight="1100" math="0" shadow="0">
      <root>
        <mxCell id="0" />
        <mxCell id="1" parent="0" />
        <mxCell id="Mnvv_WwJ39rHPu0QQhqr-1" value="Cart3D.c" style="swimlane;" parent="1" vertex="1">
          <mxGeometry x="-830" y="70" width="2040" height="1270" as="geometry" />
        </mxCell>
        <mxCell id="Mnvv_WwJ39rHPu0QQhqr-2" value="Initialize variables" style="rounded=1;whiteSpace=wrap;html=1;" parent="Mnvv_WwJ39rHPu0QQhqr-1" vertex="1">
          <mxGeometry x="925" y="40" width="120" height="60" as="geometry" />
        </mxCell>
        <mxCell id="Mnvv_WwJ39rHPu0QQhqr-3" value="MPI start" style="rounded=1;whiteSpace=wrap;html=1;" parent="Mnvv_WwJ39rHPu0QQhqr-1" vertex="1">
          <mxGeometry x="925" y="110" width="120" height="30" as="geometry" />
        </mxCell>
        <mxCell id="Mnvv_WwJ39rHPu0QQhqr-4" value="&lt;div&gt;Initialize Data_bag&lt;/div&gt;" style="rounded=1;whiteSpace=wrap;html=1;" parent="Mnvv_WwJ39rHPu0QQhqr-1" vertex="1">
          <mxGeometry x="925" y="150" width="120" height="40" as="geometry" />
        </mxCell>
        <mxCell id="Mnvv_WwJ39rHPu0QQhqr-5" value="&lt;div&gt;Read input parameters&lt;/div&gt;" style="rounded=1;whiteSpace=wrap;html=1;" parent="Mnvv_WwJ39rHPu0QQhqr-1" vertex="1">
          <mxGeometry x="925" y="200" width="120" height="40" as="geometry" />
        </mxCell>
        <mxCell id="Mnvv_WwJ39rHPu0QQhqr-6" value="&lt;div&gt;Create Grid&lt;/div&gt;" style="rounded=1;whiteSpace=wrap;html=1;" parent="Mnvv_WwJ39rHPu0QQhqr-1" vertex="1">
          <mxGeometry x="925" y="250" width="120" height="30" as="geometry" />
        </mxCell>
        <mxCell id="Mnvv_WwJ39rHPu0QQhqr-7" value="&lt;div&gt;Setup timer&lt;/div&gt;" style="rounded=1;whiteSpace=wrap;html=1;" parent="Mnvv_WwJ39rHPu0QQhqr-1" vertex="1">
          <mxGeometry x="925" y="290" width="120" height="30" as="geometry" />
        </mxCell>
        <mxCell id="Mnvv_WwJ39rHPu0QQhqr-8" value="&lt;div&gt;Create:&lt;/div&gt;&lt;div&gt;Velocity&lt;/div&gt;&lt;div&gt;Pressure&lt;/div&gt;&lt;div&gt;Viccosity&lt;br&gt;&lt;/div&gt;" style="rounded=1;whiteSpace=wrap;html=1;" parent="Mnvv_WwJ39rHPu0QQhqr-1" vertex="1">
          <mxGeometry x="925" y="330" width="120" height="70" as="geometry" />
        </mxCell>
        <mxCell id="Mnvv_WwJ39rHPu0QQhqr-9" value="#ifdef directives" style="swimlane;" parent="Mnvv_WwJ39rHPu0QQhqr-1" vertex="1">
          <mxGeometry x="872.5" y="410" width="225" height="210" as="geometry" />
        </mxCell>
        <mxCell id="Mnvv_WwJ39rHPu0QQhqr-10" value="CONC" style="rounded=1;whiteSpace=wrap;html=1;" parent="Mnvv_WwJ39rHPu0QQhqr-9" vertex="1">
          <mxGeometry x="20" y="30" width="50" height="20" as="geometry" />
        </mxCell>
        <mxCell id="Mnvv_WwJ39rHPu0QQhqr-11" value="LAG_PARTICLE_RESOLVED" style="rounded=1;whiteSpace=wrap;html=1;" parent="Mnvv_WwJ39rHPu0QQhqr-9" vertex="1">
          <mxGeometry x="20" y="60" width="180" height="20" as="geometry" />
        </mxCell>
        <mxCell id="Mnvv_WwJ39rHPu0QQhqr-12" value="OUTPUT2D" style="rounded=1;whiteSpace=wrap;html=1;" parent="Mnvv_WwJ39rHPu0QQhqr-9" vertex="1">
          <mxGeometry x="20" y="90" width="80" height="20" as="geometry" />
        </mxCell>
        <mxCell id="Mnvv_WwJ39rHPu0QQhqr-14" value="LES" style="rounded=1;whiteSpace=wrap;html=1;" parent="Mnvv_WwJ39rHPu0QQhqr-9" vertex="1">
          <mxGeometry x="20" y="120" width="50" height="20" as="geometry" />
        </mxCell>
        <mxCell id="Mnvv_WwJ39rHPu0QQhqr-13" value="RANS" style="rounded=1;whiteSpace=wrap;html=1;" parent="Mnvv_WwJ39rHPu0QQhqr-9" vertex="1">
          <mxGeometry x="20" y="150" width="50" height="20" as="geometry" />
        </mxCell>
        <mxCell id="Mnvv_WwJ39rHPu0QQhqr-17" value="TURB_FORCING" style="rounded=1;whiteSpace=wrap;html=1;" parent="Mnvv_WwJ39rHPu0QQhqr-9" vertex="1">
          <mxGeometry x="20" y="180" width="120" height="20" as="geometry" />
        </mxCell>
        <mxCell id="BQN_1DTDuwJgb3e3rP3L-50" value="Temporal_int_rk3()" style="swimlane;fontStyle=0;childLayout=stackLayout;horizontal=1;startSize=26;fillColor=none;horizontalStack=0;resizeParent=1;resizeParentMax=0;resizeLast=0;collapsible=1;marginBottom=0;" vertex="1" parent="Mnvv_WwJ39rHPu0QQhqr-1">
          <mxGeometry x="430" y="795" width="380" height="508" as="geometry">
            <mxRectangle x="20" y="880" width="190" height="26" as="alternateBounds" />
          </mxGeometry>
        </mxCell>
        <mxCell id="BQN_1DTDuwJgb3e3rP3L-51" value="Initialize data" style="text;strokeColor=none;fillColor=none;align=left;verticalAlign=top;spacingLeft=4;spacingRight=4;overflow=hidden;rotatable=0;points=[[0,0.5],[1,0.5]];portConstraint=eastwest;" vertex="1" parent="BQN_1DTDuwJgb3e3rP3L-50">
          <mxGeometry y="26" width="380" height="24" as="geometry" />
        </mxCell>
        <mxCell id="BQN_1DTDuwJgb3e3rP3L-58" value="#ifdef:&#xa;         CONC&#xa;         LES&#xa;         RANS&#xa;         OUTPUT2D&#xa;&#xa;" style="text;strokeColor=none;fillColor=none;align=left;verticalAlign=top;spacingLeft=4;spacingRight=4;overflow=hidden;rotatable=0;points=[[0,0.5],[1,0.5]];portConstraint=eastwest;" vertex="1" parent="BQN_1DTDuwJgb3e3rP3L-50">
          <mxGeometry y="50" width="380" height="80" as="geometry" />
        </mxCell>
        <mxCell id="BQN_1DTDuwJgb3e3rP3L-59" value="Choose the data source - initial/resumed/prevTimeStep" style="text;strokeColor=none;fillColor=none;align=left;verticalAlign=top;spacingLeft=4;spacingRight=4;overflow=hidden;rotatable=0;points=[[0,0.5],[1,0.5]];portConstraint=eastwest;" vertex="1" parent="BQN_1DTDuwJgb3e3rP3L-50">
          <mxGeometry y="130" width="380" height="20" as="geometry" />
        </mxCell>
        <mxCell id="BQN_1DTDuwJgb3e3rP3L-60" value="Calculate velocity" style="text;strokeColor=none;fillColor=none;align=left;verticalAlign=top;spacingLeft=4;spacingRight=4;overflow=hidden;rotatable=0;points=[[0,0.5],[1,0.5]];portConstraint=eastwest;" vertex="1" parent="BQN_1DTDuwJgb3e3rP3L-50">
          <mxGeometry y="150" width="380" height="30" as="geometry" />
        </mxCell>
        <mxCell id="BQN_1DTDuwJgb3e3rP3L-61" value="#ifdef:&#xa;         VAR_VISC&#xa;         CONC&#xa;         LAG_PARTICLE_RESOLVED&#xa;         OUTPUT2D&#xa;" style="text;strokeColor=none;fillColor=none;align=left;verticalAlign=top;spacingLeft=4;spacingRight=4;overflow=hidden;rotatable=0;points=[[0,0.5],[1,0.5]];portConstraint=eastwest;" vertex="1" parent="BQN_1DTDuwJgb3e3rP3L-50">
          <mxGeometry y="180" width="380" height="80" as="geometry" />
        </mxCell>
        <mxCell id="BQN_1DTDuwJgb3e3rP3L-67" value="Time-stepping&#xa;         #ifdef&#xa;              LAG_PARTICLE_RESOLVED&#xa;              OUTPUT2D&#xa;              RANS&#xa;         Boundary Conditions&#xa;         #ifdef&#xa;              LEFT_INFLOW or RIGHT_INFLOW&#xa;              LEFT_OUTFLOW or RIGHT_OUTFLOW&#xa;          if(rk == 0): Velocity_cell_center()&#xa;         #ifdef RANS&#xa;&#xa;" style="text;strokeColor=none;fillColor=none;align=left;verticalAlign=top;spacingLeft=4;spacingRight=4;overflow=hidden;rotatable=0;points=[[0,0.5],[1,0.5]];portConstraint=eastwest;" vertex="1" parent="BQN_1DTDuwJgb3e3rP3L-50">
          <mxGeometry y="260" width="380" height="180" as="geometry" />
        </mxCell>
        <mxCell id="BQN_1DTDuwJgb3e3rP3L-68" value="sdsd" style="text;strokeColor=none;fillColor=none;align=left;verticalAlign=top;spacingLeft=4;spacingRight=4;overflow=hidden;rotatable=0;points=[[0,0.5],[1,0.5]];portConstraint=eastwest;" vertex="1" parent="BQN_1DTDuwJgb3e3rP3L-50">
          <mxGeometry y="440" width="380" height="34" as="geometry" />
        </mxCell>
        <mxCell id="BQN_1DTDuwJgb3e3rP3L-69" value="sdsd" style="text;strokeColor=none;fillColor=none;align=left;verticalAlign=top;spacingLeft=4;spacingRight=4;overflow=hidden;rotatable=0;points=[[0,0.5],[1,0.5]];portConstraint=eastwest;" vertex="1" parent="BQN_1DTDuwJgb3e3rP3L-50">
          <mxGeometry y="474" width="380" height="34" as="geometry" />
        </mxCell>
        <mxCell id="BQN_1DTDuwJgb3e3rP3L-62" value="Velocity_cell_center()" style="swimlane;fontStyle=0;childLayout=stackLayout;horizontal=1;startSize=26;fillColor=none;horizontalStack=0;resizeParent=1;resizeParentMax=0;resizeLast=0;collapsible=1;marginBottom=0;" vertex="1" parent="Mnvv_WwJ39rHPu0QQhqr-1">
          <mxGeometry x="150" y="940" width="140" height="104" as="geometry" />
        </mxCell>
        <mxCell id="BQN_1DTDuwJgb3e3rP3L-63" value="Item 1" style="text;strokeColor=none;fillColor=none;align=left;verticalAlign=top;spacingLeft=4;spacingRight=4;overflow=hidden;rotatable=0;points=[[0,0.5],[1,0.5]];portConstraint=eastwest;" vertex="1" parent="BQN_1DTDuwJgb3e3rP3L-62">
          <mxGeometry y="26" width="140" height="26" as="geometry" />
        </mxCell>
        <mxCell id="BQN_1DTDuwJgb3e3rP3L-64" value="Item 2" style="text;strokeColor=none;fillColor=none;align=left;verticalAlign=top;spacingLeft=4;spacingRight=4;overflow=hidden;rotatable=0;points=[[0,0.5],[1,0.5]];portConstraint=eastwest;" vertex="1" parent="BQN_1DTDuwJgb3e3rP3L-62">
          <mxGeometry y="52" width="140" height="26" as="geometry" />
        </mxCell>
        <mxCell id="BQN_1DTDuwJgb3e3rP3L-65" value="Item 3" style="text;strokeColor=none;fillColor=none;align=left;verticalAlign=top;spacingLeft=4;spacingRight=4;overflow=hidden;rotatable=0;points=[[0,0.5],[1,0.5]];portConstraint=eastwest;" vertex="1" parent="BQN_1DTDuwJgb3e3rP3L-62">
          <mxGeometry y="78" width="140" height="26" as="geometry" />
        </mxCell>
        <mxCell id="BQN_1DTDuwJgb3e3rP3L-43" value="lsolver_transpose_setup();" style="swimlane;fontStyle=0;childLayout=stackLayout;horizontal=1;startSize=26;fillColor=none;horizontalStack=0;resizeParent=1;resizeParentMax=0;resizeLast=0;collapsible=1;marginBottom=0;" vertex="1" parent="Mnvv_WwJ39rHPu0QQhqr-1">
          <mxGeometry x="1275" y="970" width="380" height="52" as="geometry" />
        </mxCell>
        <mxCell id="BQN_1DTDuwJgb3e3rP3L-44" value="???" style="text;strokeColor=none;fillColor=none;align=left;verticalAlign=top;spacingLeft=4;spacingRight=4;overflow=hidden;rotatable=0;points=[[0,0.5],[1,0.5]];portConstraint=eastwest;" vertex="1" parent="BQN_1DTDuwJgb3e3rP3L-43">
          <mxGeometry y="26" width="380" height="26" as="geometry" />
        </mxCell>
        <mxCell id="BQN_1DTDuwJgb3e3rP3L-38" value="Cart3d_setup_lsys_accounting_geometry();" style="swimlane;fontStyle=0;childLayout=stackLayout;horizontal=1;startSize=26;fillColor=none;horizontalStack=0;resizeParent=1;resizeParentMax=0;resizeLast=0;collapsible=1;marginBottom=0;" vertex="1" parent="Mnvv_WwJ39rHPu0QQhqr-1">
          <mxGeometry x="1275" y="830" width="380" height="120" as="geometry" />
        </mxCell>
        <mxCell id="BQN_1DTDuwJgb3e3rP3L-39" value="Velocity_setup_lsys_accounting_geometry()&#xa;" style="text;strokeColor=none;fillColor=none;align=left;verticalAlign=top;spacingLeft=4;spacingRight=4;overflow=hidden;rotatable=0;points=[[0,0.5],[1,0.5]];portConstraint=eastwest;" vertex="1" parent="BQN_1DTDuwJgb3e3rP3L-38">
          <mxGeometry y="26" width="380" height="26" as="geometry" />
        </mxCell>
        <mxCell id="BQN_1DTDuwJgb3e3rP3L-40" value="Pressure_setup_lsys_accounting_geometry()" style="text;strokeColor=none;fillColor=none;align=left;verticalAlign=top;spacingLeft=4;spacingRight=4;overflow=hidden;rotatable=0;points=[[0,0.5],[1,0.5]];portConstraint=eastwest;" vertex="1" parent="BQN_1DTDuwJgb3e3rP3L-38">
          <mxGeometry y="52" width="380" height="26" as="geometry" />
        </mxCell>
        <mxCell id="BQN_1DTDuwJgb3e3rP3L-41" value="#ifdef CONC:&#xa;               Conc_setup_lsys_accounting_geometry" style="text;strokeColor=none;fillColor=none;align=left;verticalAlign=top;spacingLeft=4;spacingRight=4;overflow=hidden;rotatable=0;points=[[0,0.5],[1,0.5]];portConstraint=eastwest;" vertex="1" parent="BQN_1DTDuwJgb3e3rP3L-38">
          <mxGeometry y="78" width="380" height="42" as="geometry" />
        </mxCell>
        <mxCell id="Mnvv_WwJ39rHPu0QQhqr-36" value="if &quot;resume&quot; fetch previous data" style="rounded=1;whiteSpace=wrap;html=1;" parent="Mnvv_WwJ39rHPu0QQhqr-1" vertex="1">
          <mxGeometry x="925" y="630" width="120" height="60" as="geometry" />
        </mxCell>
        <mxCell id="BQN_1DTDuwJgb3e3rP3L-1" value="#ifdef directives" style="swimlane;" vertex="1" parent="Mnvv_WwJ39rHPu0QQhqr-1">
          <mxGeometry x="850" y="700" width="270" height="170" as="geometry" />
        </mxCell>
        <mxCell id="BQN_1DTDuwJgb3e3rP3L-2" value="IMMERSED_BOUNDARY" style="rounded=1;whiteSpace=wrap;html=1;" vertex="1" parent="BQN_1DTDuwJgb3e3rP3L-1">
          <mxGeometry x="15" y="80" width="170" height="20" as="geometry" />
        </mxCell>
        <mxCell id="BQN_1DTDuwJgb3e3rP3L-3" value="LAG_PARTICLE_RESOLVED" style="rounded=1;whiteSpace=wrap;html=1;" vertex="1" parent="BQN_1DTDuwJgb3e3rP3L-1">
          <mxGeometry x="15" y="50" width="180" height="20" as="geometry" />
        </mxCell>
        <mxCell id="Mnvv_WwJ39rHPu0QQhqr-21" value="CONSTANT_MASSFLUX" style="rounded=1;whiteSpace=wrap;html=1;" parent="BQN_1DTDuwJgb3e3rP3L-1" vertex="1">
          <mxGeometry x="15" y="110" width="160" height="20" as="geometry" />
        </mxCell>
        <mxCell id="BQN_1DTDuwJgb3e3rP3L-4" value="IMMERSED_BOUNDARY" style="rounded=1;whiteSpace=wrap;html=1;" vertex="1" parent="BQN_1DTDuwJgb3e3rP3L-1">
          <mxGeometry x="15" y="140" width="170" height="20" as="geometry" />
        </mxCell>
        <mxCell id="BQN_1DTDuwJgb3e3rP3L-52" style="edgeStyle=orthogonalEdgeStyle;rounded=0;orthogonalLoop=1;jettySize=auto;html=1;entryX=0;entryY=0.5;entryDx=0;entryDy=0;" edge="1" parent="Mnvv_WwJ39rHPu0QQhqr-1" source="BQN_1DTDuwJgb3e3rP3L-50" target="BQN_1DTDuwJgb3e3rP3L-47">
          <mxGeometry relative="1" as="geometry" />
        </mxCell>
        <mxCell id="BQN_1DTDuwJgb3e3rP3L-5" value="Setup linear system" style="rounded=1;whiteSpace=wrap;html=1;" vertex="1" parent="Mnvv_WwJ39rHPu0QQhqr-1">
          <mxGeometry x="925" y="880" width="120" height="30" as="geometry" />
        </mxCell>
        <mxCell id="BQN_1DTDuwJgb3e3rP3L-6" value="Setup solver" style="rounded=1;whiteSpace=wrap;html=1;" vertex="1" parent="Mnvv_WwJ39rHPu0QQhqr-1">
          <mxGeometry x="925" y="920" width="120" height="30" as="geometry" />
        </mxCell>
        <mxCell id="BQN_1DTDuwJgb3e3rP3L-48" style="edgeStyle=orthogonalEdgeStyle;rounded=0;orthogonalLoop=1;jettySize=auto;html=1;entryX=1;entryY=0.5;entryDx=0;entryDy=0;" edge="1" parent="Mnvv_WwJ39rHPu0QQhqr-1" source="BQN_1DTDuwJgb3e3rP3L-43" target="BQN_1DTDuwJgb3e3rP3L-6">
          <mxGeometry relative="1" as="geometry" />
        </mxCell>
        <mxCell id="BQN_1DTDuwJgb3e3rP3L-7" value="End of procedure" style="swimlane;" vertex="1" parent="Mnvv_WwJ39rHPu0QQhqr-1">
          <mxGeometry x="900" y="1070" width="170" height="150" as="geometry" />
        </mxCell>
        <mxCell id="BQN_1DTDuwJgb3e3rP3L-8" value="Delete fields" style="rounded=1;whiteSpace=wrap;html=1;" vertex="1" parent="BQN_1DTDuwJgb3e3rP3L-7">
          <mxGeometry x="25" y="30" width="120" height="30" as="geometry" />
        </mxCell>
        <mxCell id="BQN_1DTDuwJgb3e3rP3L-34" value="Delete timer" style="rounded=1;whiteSpace=wrap;html=1;" vertex="1" parent="BQN_1DTDuwJgb3e3rP3L-7">
          <mxGeometry x="25" y="70" width="120" height="30" as="geometry" />
        </mxCell>
        <mxCell id="BQN_1DTDuwJgb3e3rP3L-35" value="Delete grid" style="rounded=1;whiteSpace=wrap;html=1;" vertex="1" parent="BQN_1DTDuwJgb3e3rP3L-7">
          <mxGeometry x="25" y="110" width="120" height="30" as="geometry" />
        </mxCell>
        <mxCell id="BQN_1DTDuwJgb3e3rP3L-42" style="edgeStyle=orthogonalEdgeStyle;rounded=0;orthogonalLoop=1;jettySize=auto;html=1;entryX=1;entryY=0.5;entryDx=0;entryDy=0;" edge="1" parent="Mnvv_WwJ39rHPu0QQhqr-1" source="BQN_1DTDuwJgb3e3rP3L-40" target="BQN_1DTDuwJgb3e3rP3L-5">
          <mxGeometry relative="1" as="geometry" />
        </mxCell>
        <mxCell id="BQN_1DTDuwJgb3e3rP3L-47" value="Solve" style="rounded=1;whiteSpace=wrap;html=1;" vertex="1" parent="Mnvv_WwJ39rHPu0QQhqr-1">
          <mxGeometry x="925" y="962" width="120" height="28" as="geometry" />
        </mxCell>
        <mxCell id="BQN_1DTDuwJgb3e3rP3L-66" style="edgeStyle=orthogonalEdgeStyle;rounded=0;orthogonalLoop=1;jettySize=auto;html=1;" edge="1" parent="Mnvv_WwJ39rHPu0QQhqr-1" source="BQN_1DTDuwJgb3e3rP3L-63" target="BQN_1DTDuwJgb3e3rP3L-60">
          <mxGeometry relative="1" as="geometry" />
        </mxCell>
      </root>
    </mxGraphModel>
  </diagram>
</mxfile>
